<svg width="14" height="17" viewBox="0 0 14 17" fill="none" xmlns="http://www.w3.org/2000/svg">
<path d="M7.20833 0.2C7.05738 0.070912 6.86529 -1.52762e-05 6.66667 2.46792e-09H0.833333C0.61232 2.46792e-09 0.400358 0.0877973 0.244078 0.244078C0.0877975 0.400358 0 0.61232 0 0.833333V15.8333C0 16.0543 0.0877975 16.2663 0.244078 16.4226C0.400358 16.5789 0.61232 16.6667 0.833333 16.6667H12.5C12.721 16.6667 12.933 16.5789 13.0893 16.4226C13.2455 16.2663 13.3333 16.0543 13.3333 15.8333V5.83333C13.3333 5.71297 13.3073 5.59403 13.2569 5.4847C13.2066 5.37537 13.1331 5.27824 13.0417 5.2L7.20833 0.2ZM7.5 2.64167L10.25 5H7.5V2.64167ZM11.6667 15H1.66667V1.66667H5.83333V5.83333C5.83333 6.05435 5.92113 6.26631 6.07741 6.42259C6.23369 6.57887 6.44565 6.66667 6.66667 6.66667H11.6667V15Z" fill="#464255"/>
</svg>
