<svg width="17" height="18" viewBox="0 0 17 18" fill="none" xmlns="http://www.w3.org/2000/svg">
<path d="M14.325 12.2699C14.7577 11.7534 14.9964 11.102 15 10.4282C15 9.6547 14.6927 8.91283 14.1457 8.36585C13.5987 7.81887 12.8569 7.51158 12.0833 7.51158H11.85C12.5372 6.6949 12.9149 5.66227 12.9167 4.59491C12.9186 3.82537 12.7268 3.06772 12.3588 2.39185C11.9909 1.71597 11.4586 1.14362 10.8113 0.727572C10.1639 0.311529 9.42215 0.0651878 8.6545 0.0112663C7.88685 -0.0426552 7.11797 0.0975788 6.41878 0.419036C5.71959 0.740494 5.1126 1.23283 4.65377 1.85063C4.19495 2.46843 3.89907 3.19182 3.79342 3.95408C3.68776 4.71634 3.77574 5.49293 4.04923 6.21223C4.32273 6.93154 4.77293 7.5704 5.35833 8.06991C3.78356 8.67177 2.42835 9.7371 1.47168 11.1252C0.515009 12.5134 0.00186224 14.159 0 15.8449C0 16.0659 0.0877973 16.2779 0.244078 16.4342C0.400358 16.5904 0.61232 16.6782 0.833333 16.6782C1.05435 16.6782 1.26631 16.5904 1.42259 16.4342C1.57887 16.2779 1.66667 16.0659 1.66667 15.8449C1.66667 14.0768 2.36905 12.3811 3.61929 11.1309C4.86953 9.88062 6.56522 9.17825 8.33333 9.17825H9.45833C9.21423 9.67492 9.12048 10.2321 9.18857 10.7813C9.25667 11.3305 9.48366 11.8479 9.84167 12.2699C9.13173 12.667 8.5405 13.2462 8.1289 13.9478C7.7173 14.6495 7.50021 15.4481 7.5 16.2616C7.5 16.4826 7.5878 16.6946 7.74408 16.8508C7.90036 17.0071 8.11232 17.0949 8.33333 17.0949C8.55435 17.0949 8.76631 17.0071 8.92259 16.8508C9.07887 16.6946 9.16667 16.4826 9.16667 16.2616C9.16667 15.488 9.47396 14.7462 10.0209 14.1992C10.5679 13.6522 11.3098 13.3449 12.0833 13.3449C12.8569 13.3449 13.5987 13.6522 14.1457 14.1992C14.6927 14.7462 15 15.488 15 16.2616C15 16.4826 15.0878 16.6946 15.2441 16.8508C15.4004 17.0071 15.6123 17.0949 15.8333 17.0949C16.0543 17.0949 16.2663 17.0071 16.4226 16.8508C16.5789 16.6946 16.6667 16.4826 16.6667 16.2616C16.6665 15.4481 16.4494 14.6495 16.0378 13.9478C15.6262 13.2462 15.0349 12.667 14.325 12.2699V12.2699ZM8.33333 7.51158C7.75647 7.51158 7.19256 7.34052 6.71292 7.02003C6.23328 6.69954 5.85944 6.24402 5.63868 5.71107C5.41793 5.17812 5.36017 4.59168 5.47271 4.0259C5.58525 3.46012 5.86304 2.94042 6.27094 2.53252C6.67884 2.12462 7.19854 1.84683 7.76432 1.73429C8.3301 1.62175 8.91654 1.67951 9.44949 1.90026C9.98244 2.12102 10.438 2.49486 10.7585 2.9745C11.0789 3.45414 11.25 4.01805 11.25 4.59491C11.25 5.36846 10.9427 6.11033 10.3957 6.65731C9.84875 7.20429 9.10688 7.51158 8.33333 7.51158V7.51158ZM12.0833 11.6782C11.7518 11.6782 11.4339 11.5465 11.1995 11.3121C10.965 11.0777 10.8333 10.7598 10.8333 10.4282C10.8355 10.0974 10.9679 9.78072 11.2019 9.54678C11.4358 9.31283 11.7525 9.18043 12.0833 9.17825C12.4149 9.17825 12.7328 9.30994 12.9672 9.54436C13.2016 9.77878 13.3333 10.0967 13.3333 10.4282C13.3333 10.7598 13.2016 11.0777 12.9672 11.3121C12.7328 11.5465 12.4149 11.6782 12.0833 11.6782Z" fill="#464255"/>
</svg>
