<svg width="308" height="220" viewBox="0 0 308 220" fill="none" xmlns="http://www.w3.org/2000/svg">
<path d="M199.258 153.381C199.258 153.381 239.422 158.713 240.945 136.99C242.469 115.268 234.344 112.536 251.608 105.275C268.872 98.0142 256.686 122.357 270.903 119.574C285.121 116.791 265.826 93.9724 278.52 88.6307C291.214 83.289 313.048 92.4288 306.447 110.201C299.846 127.972 282.074 124.185 281.059 136.99C280.043 149.796 303.401 162.49 283.09 172.392C272.376 177.622 263.632 173.996 257.773 169.396C255.041 167.197 251.86 165.624 248.454 164.787C245.049 163.95 241.501 163.87 238.061 164.552C227.686 166.762 216.864 165.294 207.453 160.398L199.258 153.381Z" fill="#FFFAE3"/>
<path d="M112.227 166.278C112.227 166.278 111.952 170.026 108.946 171.153C105.94 172.28 105.981 175.53 108.946 175.53C111.912 175.53 118.086 169.965 118.086 169.965L116.634 165.567L112.227 166.278Z" fill="#29B067"/>
<path opacity="0.08" d="M112.227 166.278C112.227 166.278 111.952 170.026 108.946 171.153C105.94 172.28 105.981 175.53 108.946 175.53C111.912 175.53 118.086 169.965 118.086 169.965L116.634 165.567L112.227 166.278Z" fill="#191720"/>
<path d="M111.78 95.6479C111.78 95.6479 100.345 91.1897 99.2175 95.6479C98.0902 100.106 113.486 102.127 113.486 102.127L111.78 95.6479Z" fill="#F4A28C"/>
<path opacity="0.08" d="M111.78 95.6479C111.78 95.6479 100.345 91.1897 99.2175 95.6479C98.0902 100.106 113.486 102.127 113.486 102.127L111.78 95.6479Z" fill="#191720"/>
<path d="M135.381 220C210.149 220 270.761 212.33 270.761 202.868C270.761 193.406 210.149 185.736 135.381 185.736C60.612 185.736 0 193.406 0 202.868C0 212.33 60.612 220 135.381 220Z" fill="#FFFAE3"/>
<path d="M89.57 21.8494C89.57 21.8494 89.0115 29.3541 90.3418 34.3201C90.6013 35.2864 91.2336 36.1104 92.0998 36.6111C92.9661 37.1118 93.9956 37.2484 94.9625 36.991C97.4506 36.2902 100.619 34.6146 101.411 30.6236L103.574 24.0226C103.87 22.6577 103.736 21.2349 103.19 19.9493C102.645 18.6638 101.715 17.5786 100.528 16.8428C96.2522 13.847 89.6817 17.2592 89.57 21.8494Z" fill="#F4A28C"/>
<path d="M96.5162 23.5657L118.868 33.9647L112.257 45.8769L98.984 33.8429L96.5162 23.5657Z" fill="#F4A28C"/>
<path d="M91.4387 22.1337C93.7672 22.2039 96.0957 21.9959 98.3748 21.5142C97.7146 22.5445 97.3704 23.7455 97.3848 24.9691C97.3993 26.1926 97.7717 27.3852 98.456 28.3996C99.0971 29.4011 100.069 30.1459 101.203 30.5041C102.337 30.8623 103.561 30.8111 104.661 30.3595L104.407 20.6612C104.421 19.2782 104.06 17.9172 103.363 16.7227C102.666 15.5283 101.658 14.5451 100.446 13.8774C99.3973 13.294 98.3119 12.7784 97.1968 12.3338C94.3939 11.2574 90.3419 13.1666 87.8234 11.3183C87.5696 11.1351 87.2727 11.0205 86.9616 10.9857C86.6505 10.9508 86.3357 10.9969 86.0476 11.1195C85.7596 11.2421 85.5081 11.437 85.3174 11.6853C85.1268 11.9336 85.0036 12.227 84.9596 12.5369C84.5636 15.4921 85.1526 20.1027 89.1436 21.6767C89.8782 21.9548 90.6537 22.1092 91.4387 22.1337Z" fill="#191720"/>
<path d="M97.6536 28.1861C97.6536 28.1861 97.6536 25.2919 99.8471 25.4848C102.041 25.6778 102.031 29.8719 99.0753 30.2984L97.6536 28.1861Z" fill="#F4A28C"/>
<path d="M89.4685 26.5918L87.4375 29.5165C87.3197 29.6825 87.2457 29.8755 87.2224 30.0777C87.1991 30.2799 87.2273 30.4847 87.3043 30.6731C87.3812 30.8615 87.5046 31.0274 87.6628 31.1554C87.821 31.2834 88.009 31.3694 88.2093 31.4054L91.0934 31.903L89.4685 26.5918Z" fill="#F4A28C"/>
<path d="M111.475 95.526L137.351 88.9656C137.351 88.9656 111.15 78.1705 117.497 58.7332C123.844 39.2959 159.286 94.5917 159.286 94.5917L113.933 102.655L111.475 95.526Z" fill="#29B067"/>
<path opacity="0.08" d="M111.475 95.526L137.351 88.9656C137.351 88.9656 111.15 78.1705 117.497 58.7332C123.844 39.2959 159.286 94.5917 159.286 94.5917L113.933 102.655L111.475 95.526Z" fill="#191720"/>
<path d="M213.089 106.778C213.089 106.778 215.709 131.151 185.721 129.272C170.305 128.318 152.472 128.094 138.773 128.105C136.041 128.108 133.343 128.709 130.868 129.865C128.394 131.021 126.202 132.705 124.447 134.798C122.691 136.891 121.415 139.342 120.708 141.981C120 144.619 119.878 147.38 120.351 150.07L122.91 164.714L112.978 166.949L109.18 151.045C107.067 142.113 108.447 132.711 113.038 124.764C117.629 116.816 125.084 110.923 133.878 108.291L152.685 102.655L213.089 106.778Z" fill="#191720"/>
<path d="M128.079 109.012C128.079 109.012 104.163 114.517 105.29 141.794L110.368 166.999L117.01 165.76C117.01 165.76 110.094 117.33 135.401 110.861V107.906L128.079 109.012Z" fill="#191720"/>
<path d="M107.525 50.4872L118.868 33.9645C118.868 33.9645 130.598 28.0541 155.722 30.2984C180.846 32.5427 216.827 52.0308 213.089 106.778L159.205 108.088C159.205 108.088 171.229 91.0781 148.786 89.961C126.343 88.8439 98.9333 82.2023 107.525 50.4872Z" fill="#29B067"/>
<path opacity="0.08" d="M153.071 52.8232C153.071 52.8232 191.987 58.7946 193.408 107.256L154.879 108.931L160.647 89.9613L153.071 52.8232Z" fill="#191720"/>
<path d="M139.737 24.7231C139.737 24.7231 107.89 26.7542 107.687 49.7865C107.484 72.8188 125.215 83.8272 143.231 87.9299C165.308 92.9568 187.61 81.0243 193.388 56.7226L184.858 48.6593C184.858 48.6593 179.78 73.4078 156.727 71.722C133.675 70.0362 96.5874 42.3325 147.587 32.431L139.737 24.7231Z" fill="#191720"/>
<path d="M133.989 42.1803C131.682 41.348 129.185 41.1908 126.792 41.7274C124.398 42.2639 122.208 43.4718 120.476 45.2094C118.745 46.947 117.545 49.1423 117.018 51.5376C116.49 53.933 116.656 56.4292 117.497 58.7335L117.66 59.16C123.286 73.6009 152.716 91.2204 152.716 91.2204L112.978 97.9635L114.847 107.103C114.847 107.103 156.849 115.167 172.214 102.604C186.36 91.1188 166.618 53.9808 133.989 42.1803Z" fill="#29B067"/>
<path opacity="0.46" d="M133.989 42.1803C131.682 41.348 129.185 41.1908 126.792 41.7274C124.398 42.2639 122.208 43.4718 120.476 45.2094C118.745 46.947 117.545 49.1423 117.018 51.5376C116.49 53.933 116.656 56.4292 117.497 58.7335L117.66 59.16C123.286 73.6009 152.716 91.2204 152.716 91.2204L112.978 97.9635L114.847 107.103C114.847 107.103 156.849 115.167 172.214 102.604C186.36 91.1188 166.618 53.9808 133.989 42.1803Z" fill="white"/>
<path d="M144.906 190.773H182.075L208.398 164.288L200.903 151.959L149.903 170.148L144.906 190.773Z" fill="#191720"/>
<path d="M135.096 30.7249C135.096 30.7249 131.999 11.8258 147.476 5.91542C161.988 0.350301 203.492 7.75354 216.055 45.4501C216.743 47.5547 216.763 49.8209 216.112 51.9374C215.461 54.0539 214.171 55.917 212.419 57.2709L208.062 60.6628C206.653 61.7685 205.039 62.5844 203.313 63.0636C201.588 63.5428 199.784 63.6757 198.006 63.4549C196.229 63.234 194.513 62.6636 192.957 61.7766C191.401 60.8895 190.035 59.7034 188.94 58.2865C180.602 47.3796 164.069 32.5529 135.096 30.7249Z" fill="#191720"/>
<path d="M91.9159 90.103L87.2851 90.7326C86.2852 90.869 85.3227 91.2035 84.4537 91.7165C83.5848 92.2295 82.8269 92.9107 82.2245 93.7202C81.6221 94.5298 81.1872 95.4513 80.9454 96.431C80.7036 97.4107 80.6596 98.4287 80.8161 99.4256L81.3747 103.01C81.6696 104.875 82.6201 106.574 84.0553 107.801C85.4906 109.027 87.3164 109.702 89.2044 109.703H89.4685C89.4685 109.703 63.481 132.085 59.9164 148.618L88.9201 183.735C90.7408 185.953 93.03 187.741 95.6233 188.97C98.2165 190.199 101.05 190.839 103.919 190.844H144.906C144.906 190.844 156.28 162.531 205.96 160.286C205.96 160.286 211.038 147.156 197.338 135.538L144.906 139.092L133.4 146.78L134.842 156.803C135.339 160.214 134.635 163.691 132.851 166.64C131.067 169.589 128.314 171.827 125.063 172.97C121.086 174.37 116.771 174.493 112.72 173.322C108.669 172.152 105.085 169.746 102.467 166.441C94.6375 156.58 87.5085 140.037 99.1059 118.101C99.1059 118.101 113.669 97.4149 99.7152 91.1795C97.2665 90.101 94.5652 89.7282 91.9159 90.103Z" fill="#FFCF54"/>
<path d="M85.5079 91.2102L89.1942 109.703H80.9176L78.2874 93.6576L85.5079 91.2102Z" fill="#FFCF54"/>
<path opacity="0.51" d="M85.5079 91.2102L89.1942 109.703H80.9176L78.2874 93.6576L85.5079 91.2102Z" fill="white"/>
<path d="M112.978 99.8726C112.978 99.8726 101.543 95.4043 100.416 99.8726C99.2886 104.341 114.633 106.352 114.633 106.352L112.978 99.8726Z" fill="#F4A28C"/>
<path d="M100.355 108.088C102.75 108.088 104.691 106.147 104.691 103.752C104.691 101.357 102.75 99.4158 100.355 99.4158C97.9601 99.4158 96.0187 101.357 96.0187 103.752C96.0187 106.147 97.9601 108.088 100.355 108.088Z" fill="#FFCF54"/>
<path d="M56.6158 205.864C69.4933 205.864 79.9325 195.425 79.9325 182.547C79.9325 169.67 69.4933 159.23 56.6158 159.23C43.7384 159.23 33.2992 169.67 33.2992 182.547C33.2992 195.425 43.7384 205.864 56.6158 205.864Z" fill="#191720"/>
<path d="M56.616 198.146C65.2308 198.146 72.2146 191.162 72.2146 182.547C72.2146 173.932 65.2308 166.949 56.616 166.949C48.0011 166.949 41.0174 173.932 41.0174 182.547C41.0174 191.162 48.0011 198.146 56.616 198.146Z" fill="white"/>
<path d="M56.616 199.669C53.2296 199.669 49.9193 198.665 47.1036 196.784C44.2879 194.902 42.0934 192.228 40.7975 189.099C39.5016 185.971 39.1625 182.528 39.8231 179.207C40.4838 175.886 42.1145 172.835 44.509 170.44C46.9036 168.046 49.9544 166.415 53.2757 165.754C56.597 165.094 60.0397 165.433 63.1683 166.729C66.2969 168.025 68.971 170.219 70.8524 173.035C72.7337 175.85 73.7379 179.161 73.7379 182.547C73.7352 187.087 71.9305 191.441 68.7201 194.651C65.5097 197.862 61.1562 199.666 56.616 199.669ZM56.616 168.472C53.8322 168.472 51.1109 169.297 48.7962 170.844C46.4816 172.391 44.6775 174.589 43.6122 177.161C42.5468 179.733 42.2681 182.563 42.8112 185.293C43.3543 188.023 44.6948 190.531 46.6633 192.5C48.6318 194.468 51.1397 195.809 53.8701 196.352C56.6004 196.895 59.4305 196.616 62.0024 195.551C64.5743 194.486 66.7726 192.682 68.3192 190.367C69.8658 188.052 70.6913 185.331 70.6913 182.547C70.6886 178.815 69.2048 175.236 66.5658 172.597C63.9267 169.958 60.3482 168.475 56.616 168.472Z" fill="#29B067"/>
<path opacity="0.11" d="M168.467 170.523C168.467 170.523 159.327 181.776 157.408 190.773H178.734L185.67 178.394L179.099 166.949L168.467 170.523Z" fill="white"/>
<path d="M197.765 205.864C210.642 205.864 221.082 195.425 221.082 182.547C221.082 169.67 210.642 159.23 197.765 159.23C184.887 159.23 174.448 169.67 174.448 182.547C174.448 195.425 184.887 205.864 197.765 205.864Z" fill="#191720"/>
<path d="M197.765 198.146C206.38 198.146 213.364 191.162 213.364 182.547C213.364 173.932 206.38 166.949 197.765 166.949C189.15 166.949 182.166 173.932 182.166 182.547C182.166 191.162 189.15 198.146 197.765 198.146Z" fill="white"/>
<path d="M197.755 199.669C194.369 199.667 191.059 198.661 188.245 196.779C185.431 194.896 183.238 192.221 181.943 189.092C180.649 185.964 180.311 182.521 180.973 179.201C181.635 175.88 183.266 172.83 185.661 170.437C188.056 168.043 191.107 166.413 194.428 165.754C197.749 165.094 201.191 165.433 204.319 166.73C207.447 168.026 210.121 170.22 212.002 173.036C213.883 175.851 214.887 179.161 214.887 182.547C214.881 187.088 213.074 191.442 209.862 194.652C206.65 197.862 202.296 199.666 197.755 199.669ZM197.755 168.472C194.971 168.474 192.251 169.301 189.938 170.849C187.624 172.397 185.822 174.596 184.758 177.168C183.694 179.74 183.417 182.57 183.961 185.299C184.505 188.029 185.847 190.536 187.816 192.504C189.784 194.471 192.292 195.81 195.023 196.353C197.753 196.895 200.582 196.616 203.153 195.55C205.725 194.484 207.922 192.68 209.469 190.366C211.015 188.051 211.84 185.331 211.84 182.547C211.835 178.814 210.349 175.236 207.708 172.597C205.067 169.958 201.488 168.475 197.755 168.472Z" fill="#29B067"/>
<path opacity="0.08" d="M100.355 108.088C102.75 108.088 104.691 106.147 104.691 103.752C104.691 101.357 102.75 99.4158 100.355 99.4158C97.9601 99.4158 96.0187 101.357 96.0187 103.752C96.0187 106.147 97.9601 108.088 100.355 108.088Z" fill="#191720"/>
<path d="M59.9165 148.618C59.9165 148.618 46.6232 150.192 39.7582 161.333C39.4808 161.774 39.3381 162.287 39.3475 162.808C39.3569 163.329 39.518 163.836 39.8111 164.267C40.1041 164.698 40.5165 165.034 40.9977 165.234C41.4789 165.435 42.0081 165.49 42.5204 165.395C50.5228 164.003 66.8018 164.044 85.8532 180.049L59.9165 148.618Z" fill="#FFCF54"/>
<path opacity="0.08" d="M59.9165 148.618C59.9165 148.618 46.6232 150.192 39.7582 161.333C39.4808 161.774 39.3381 162.287 39.3475 162.808C39.3569 163.329 39.518 163.836 39.8111 164.267C40.1041 164.698 40.5165 165.034 40.9977 165.234C41.4789 165.435 42.0081 165.49 42.5204 165.395C50.5228 164.003 66.8018 164.044 85.8532 180.049L59.9165 148.618Z" fill="#191720"/>
<path d="M134.213 146.709C134.213 146.709 122.382 137.244 127.46 129.09C132.537 120.935 156.423 129.648 174.987 123.464C193.55 117.279 210.886 122.154 198.141 135.467L134.213 146.709Z" fill="#FFCF54"/>
<path opacity="0.17" d="M134.213 146.709C134.213 146.709 122.382 137.244 127.46 129.09C132.537 120.935 156.423 129.648 174.987 123.464C193.55 117.279 210.886 122.154 198.141 135.467L134.213 146.709Z" fill="#191720"/>
<path d="M172.414 6.37381C172.755 4.14503 169.606 1.81479 165.381 1.16907C161.157 0.523356 157.456 1.80668 157.115 4.03546C156.774 6.26425 159.923 8.5945 164.148 9.24022C168.372 9.88594 172.073 8.6026 172.414 6.37381Z" fill="#FFCF54"/>
<path d="M156.737 176.393C156.737 176.393 143.881 163.77 156.737 154.051C168.254 145.318 194.617 139.895 211.231 151.533C211.874 151.996 212.384 152.62 212.712 153.341C213.039 154.063 213.173 154.858 213.099 155.647C213.025 156.436 212.746 157.192 212.29 157.84C211.835 158.488 211.217 159.006 210.5 159.342C199.41 164.633 175.352 175.174 156.737 176.393Z" fill="#FFCF54"/>
<path opacity="0.08" d="M156.737 176.393C156.737 176.393 143.881 163.77 156.737 154.051C168.254 145.318 194.617 139.895 211.231 151.533C211.874 151.996 212.384 152.62 212.712 153.341C213.039 154.063 213.173 154.858 213.099 155.647C213.025 156.436 212.746 157.192 212.29 157.84C211.835 158.488 211.217 159.006 210.5 159.342C199.41 164.633 175.352 175.174 156.737 176.393Z" fill="#191720"/>
<path d="M213.039 155.951C215.766 160.318 219.278 164.143 223.397 167.233C223.682 167.45 223.882 167.761 223.962 168.11C224.042 168.459 223.998 168.825 223.836 169.145C223.674 169.465 223.406 169.718 223.077 169.86C222.748 170.002 222.38 170.025 222.036 169.924C216.215 168.301 210.966 165.078 206.884 160.622L213.039 155.951Z" fill="#FFCF54"/>
<path d="M86.5437 8.89109C85.5297 9.56161 84.6695 10.4397 84.0201 11.4673C83.3706 12.4949 82.9466 13.6486 82.7761 14.8523C82.4003 17.5739 82.5831 20.9455 85.4266 22.225C90.5043 24.4795 96.4858 23.5655 96.4858 23.5655C96.4858 23.5655 95.978 33.335 103.005 32.9084C110.033 32.4819 111.302 20.9658 109.038 15.0554C106.956 9.56134 98.8012 0.756669 86.5437 8.89109Z" fill="#29B067"/>
<path d="M83.1823 19.8486C83.1823 19.8486 73.0879 25.5965 77.5867 27.2925C82.0855 28.9884 96.5163 23.5655 96.5163 23.5655C96.5163 23.5655 85.1321 24.774 83.1823 19.8486Z" fill="#191720"/>
<path d="M116.989 165.71C116.989 165.71 116.715 169.467 113.709 170.594C110.703 171.721 110.744 174.961 113.709 174.971C116.674 174.981 122.849 169.396 122.849 169.396L121.397 165.009L116.989 165.71Z" fill="#29B067"/>
<path opacity="0.46" d="M101.777 26.8763C104.054 26.8763 105.9 25.0303 105.9 22.7532C105.9 20.4761 104.054 18.6301 101.777 18.6301C99.4995 18.6301 97.6536 20.4761 97.6536 22.7532C97.6536 25.0303 99.4995 26.8763 101.777 26.8763Z" fill="white"/>
<path opacity="0.17" d="M79.435 135.538C79.4924 134.919 79.3458 134.297 79.0176 133.769C78.6894 133.24 78.1975 132.834 77.6168 132.611C77.0361 132.388 76.3985 132.36 75.8009 132.533C75.2033 132.706 74.6786 133.069 74.3065 133.568C70.1124 139.143 66.3447 145.856 68.5586 149.887C72.8746 157.758 78.0944 159.281 79.9326 153.95C81.2223 150.182 78.7139 143.926 79.435 135.538Z" fill="white"/>
</svg>
