<svg width="21" height="21" viewBox="0 0 21 21" fill="none" xmlns="http://www.w3.org/2000/svg">
<path d="M11.6667 5.83333V1.16667C11.6667 0.836111 11.7787 0.558833 12.0027 0.334833C12.2259 0.111611 12.5028 0 12.8333 0H19.8333C20.1639 0 20.4408 0.111611 20.664 0.334833C20.888 0.558833 21 0.836111 21 1.16667V5.83333C21 6.16389 20.888 6.44078 20.664 6.664C20.4408 6.888 20.1639 7 19.8333 7H12.8333C12.5028 7 12.2259 6.888 12.0027 6.664C11.7787 6.44078 11.6667 6.16389 11.6667 5.83333ZM0 10.5V1.16667C0 0.836111 0.112 0.558833 0.336 0.334833C0.559222 0.111611 0.836111 0 1.16667 0H8.16667C8.49722 0 8.7745 0.111611 8.9985 0.334833C9.22172 0.558833 9.33333 0.836111 9.33333 1.16667V10.5C9.33333 10.8306 9.22172 11.1074 8.9985 11.3307C8.7745 11.5547 8.49722 11.6667 8.16667 11.6667H1.16667C0.836111 11.6667 0.559222 11.5547 0.336 11.3307C0.112 11.1074 0 10.8306 0 10.5ZM11.6667 19.8333V10.5C11.6667 10.1694 11.7787 9.89217 12.0027 9.66817C12.2259 9.44494 12.5028 9.33333 12.8333 9.33333H19.8333C20.1639 9.33333 20.4408 9.44494 20.664 9.66817C20.888 9.89217 21 10.1694 21 10.5V19.8333C21 20.1639 20.888 20.4408 20.664 20.664C20.4408 20.888 20.1639 21 19.8333 21H12.8333C12.5028 21 12.2259 20.888 12.0027 20.664C11.7787 20.4408 11.6667 20.1639 11.6667 19.8333ZM0 19.8333V15.1667C0 14.8361 0.112 14.5588 0.336 14.3348C0.559222 14.1116 0.836111 14 1.16667 14H8.16667C8.49722 14 8.7745 14.1116 8.9985 14.3348C9.22172 14.5588 9.33333 14.8361 9.33333 15.1667V19.8333C9.33333 20.1639 9.22172 20.4408 8.9985 20.664C8.7745 20.888 8.49722 21 8.16667 21H1.16667C0.836111 21 0.559222 20.888 0.336 20.664C0.112 20.4408 0 20.1639 0 19.8333ZM2.33333 9.33333H7V2.33333H2.33333V9.33333ZM14 18.6667H18.6667V11.6667H14V18.6667ZM14 4.66667H18.6667V2.33333H14V4.66667ZM2.33333 18.6667H7V16.3333H2.33333V18.6667Z" fill="white"/>
</svg>
