<svg width="12" height="12" viewBox="0 0 12 12" fill="none" xmlns="http://www.w3.org/2000/svg">
<path d="M1.39286e-05 7.47147V10.8048C1.39286e-05 11.0258 0.0878115 11.2378 0.244092 11.3941C0.400372 11.5503 0.612334 11.6381 0.833347 11.6381H4.16668C4.27635 11.6388 4.38507 11.6177 4.4866 11.5763C4.58813 11.5348 4.68048 11.4737 4.75835 11.3965L10.8333 5.3298C11.3657 4.79024 11.6641 4.06276 11.6641 3.3048C11.6641 2.54684 11.3657 1.81937 10.8333 1.2798L10.3583 0.804802C9.8108 0.28793 9.08632 0 8.33335 0C7.58037 0 6.8559 0.28793 6.30835 0.804802L0.241681 6.8798C0.164446 6.95767 0.103342 7.05002 0.0618712 7.15155C0.0204007 7.25308 -0.000620149 7.3618 1.39286e-05 7.47147ZM1.66668 7.81314L7.50002 1.9798C7.72565 1.76769 8.02367 1.64961 8.33335 1.64961C8.64303 1.64961 8.94105 1.76769 9.16668 1.9798L9.63335 2.44647C9.85319 2.6681 9.97654 2.96763 9.97654 3.2798C9.97654 3.59197 9.85319 3.8915 9.63335 4.11314L3.80001 9.94647H1.66668V7.81314Z" fill="#464255"/>
</svg>
