<svg width="18" height="14" viewBox="0 0 18 14" fill="none" xmlns="http://www.w3.org/2000/svg">
<path d="M15.7695 3.125H14.8977L15.0039 2.06119C15.0299 1.80056 15.001 1.53737 14.9191 1.28858C14.8372 1.03979 14.7041 0.81093 14.5283 0.61674C14.3525 0.42255 14.138 0.26734 13.8986 0.161116C13.6592 0.0548906 13.4001 6.34063e-06 13.1382 0H3.40072C3.13874 2.0533e-05 2.87967 0.0549319 2.64021 0.161195C2.40074 0.267459 2.1862 0.422716 2.01041 0.616961C1.83462 0.811206 1.70148 1.04013 1.61957 1.28897C1.53766 1.53782 1.5088 1.80107 1.53484 2.06175L2.39077 11.6219C2.40756 11.7718 2.37465 11.4608 2.4944 12.0607H0.625022C0.459262 12.0607 0.30029 12.1265 0.18308 12.2437C0.0658699 12.3609 2.19345e-05 12.5199 2.19345e-05 12.6857C2.19345e-05 12.8514 0.0658699 13.0104 0.18308 13.1276C0.30029 13.2448 0.459262 13.3107 0.625022 13.3107L15.8945 13.5C16.0602 13.5 16.2192 13.4342 16.3364 13.3169C16.4536 13.1997 16.5195 13.0408 16.5195 12.875C16.5195 12.7092 16.4536 12.5503 16.3364 12.4331C16.2192 12.3158 16.0602 12.25 15.8945 12.25H14.0252C14.0772 12.1086 14.1119 11.9615 14.1287 11.8118L14.335 8.75H15.7695C16.2666 8.74945 16.7432 8.55173 17.0947 8.20022C17.4462 7.84871 17.6439 7.37211 17.6445 6.875V5C17.6439 4.50289 17.4462 4.02629 17.0947 3.67478C16.7432 3.32327 16.2666 3.12555 15.7695 3.125ZM4.55575 12.0607C4.40072 12.0612 4.25107 12.0038 4.13614 11.8998C4.0212 11.7957 3.94925 11.6525 3.93438 11.4982L3.03231 2.08982C3.0236 2.00289 3.03321 1.9151 3.0605 1.8321C3.08779 1.74911 3.13216 1.67275 3.19076 1.60795C3.24936 1.54314 3.32088 1.49133 3.40072 1.45585C3.48055 1.42037 3.56694 1.40201 3.65431 1.40195L12.9149 1.45585C13.0022 1.45591 13.0886 1.47426 13.1684 1.50971C13.2482 1.54517 13.3197 1.59694 13.3783 1.6617C13.4369 1.72647 13.4813 1.80278 13.5086 1.88574C13.5359 1.96869 13.5455 2.05645 13.5369 2.14335L12.9149 11.4988C12.8999 11.6531 12.8278 11.7962 12.7128 11.9001C12.5979 12.004 12.4482 12.0613 12.2933 12.0607H4.55575ZM16.3945 6.875C16.3944 7.04073 16.3285 7.19964 16.2113 7.31683C16.0941 7.43402 15.9352 7.4999 15.7695 7.5H14.46L14.7725 4.375H15.7695C15.9352 4.3751 16.0941 4.44098 16.2113 4.55817C16.3285 4.67536 16.3944 4.83427 16.3945 5V6.875Z" fill="#464255"/>
</svg>
