<svg width="15" height="17" viewBox="0 0 15 17" fill="none" xmlns="http://www.w3.org/2000/svg">
<path d="M0 5.83333V15.8333C0 16.0544 0.0877973 16.2663 0.244078 16.4226C0.400358 16.5789 0.61232 16.6667 0.833333 16.6667H5C5.22101 16.6667 5.43297 16.5789 5.58925 16.4226C5.74554 16.2663 5.83333 16.0544 5.83333 15.8333V10H9.16667V15.8333C9.16667 16.0544 9.25446 16.2663 9.41074 16.4226C9.56702 16.5789 9.77899 16.6667 10 16.6667H14.1667C14.3877 16.6667 14.5996 16.5789 14.7559 16.4226C14.9122 16.2663 15 16.0544 15 15.8333V5.83333C15 5.70396 14.9699 5.57637 14.912 5.46066C14.8542 5.34494 14.7702 5.24429 14.6667 5.16667L8 0.166667C7.85575 0.0584816 7.68031 0 7.5 0C7.31969 0 7.14425 0.0584816 7 0.166667L0.333333 5.16667C0.229837 5.24429 0.145834 5.34494 0.0879772 5.46066C0.0301208 5.57637 0 5.70396 0 5.83333V5.83333ZM1.66667 6.25L7.5 1.875L13.3333 6.25V15H10.8333V9.16667C10.8333 8.94565 10.7455 8.73369 10.5893 8.57741C10.433 8.42113 10.221 8.33333 10 8.33333H5C4.77899 8.33333 4.56702 8.42113 4.41074 8.57741C4.25446 8.73369 4.16667 8.94565 4.16667 9.16667V15H1.66667V6.25Z" fill="#404040"/>
</svg>
