<svg width="19" height="24" viewBox="0 0 19 24" fill="none" xmlns="http://www.w3.org/2000/svg">
<path d="M9.33333 11.6667C9.975 11.6667 10.5245 11.438 10.9818 10.9807C11.4384 10.5241 11.6667 9.975 11.6667 9.33333C11.6667 8.69167 11.4384 8.14217 10.9818 7.68483C10.5245 7.22828 9.975 7 9.33333 7C8.69167 7 8.14256 7.22828 7.686 7.68483C7.22867 8.14217 7 8.69167 7 9.33333C7 9.975 7.22867 10.5241 7.686 10.9807C8.14256 11.438 8.69167 11.6667 9.33333 11.6667ZM9.33333 23.3333C6.20278 20.6694 3.86478 18.1949 2.31933 15.9098C0.773111 13.6255 0 11.5111 0 9.56667C0 6.65 0.938389 4.32639 2.81517 2.59583C4.69117 0.865278 6.86389 0 9.33333 0C11.8028 0 13.9755 0.865278 15.8515 2.59583C17.7283 4.32639 18.6667 6.65 18.6667 9.56667C18.6667 11.5111 17.8939 13.6255 16.3485 15.9098C14.8023 18.1949 12.4639 20.6694 9.33333 23.3333Z" fill="white"/>
</svg>
