<svg width="15" height="15" viewBox="0 0 15 15" fill="none" xmlns="http://www.w3.org/2000/svg">
<path d="M0.833347 15.0048H4.16668C4.27635 15.0055 4.38507 14.9844 4.4866 14.943C4.58813 14.9015 4.68048 14.8404 4.75835 14.7632L14.7583 4.76317C14.8365 4.6857 14.8985 4.59353 14.9408 4.49198C14.9831 4.39043 15.0048 4.28151 15.0048 4.1715C15.0048 4.06149 14.9831 3.95257 14.9408 3.85102C14.8985 3.74947 14.8365 3.6573 14.7583 3.57983L11.425 0.246499C11.3475 0.168392 11.2554 0.106397 11.1538 0.0640893C11.0523 0.0217821 10.9434 0 10.8333 0C10.7233 0 10.6144 0.0217821 10.5129 0.0640893C10.4113 0.106397 10.3192 0.168392 10.2417 0.246499L0.241681 10.2465C0.164446 10.3244 0.103342 10.4167 0.0618712 10.5182C0.0204007 10.6198 -0.000620149 10.7285 1.39286e-05 10.8382V14.1715C1.39286e-05 14.3925 0.0878113 14.6045 0.244092 14.7608C0.400372 14.917 0.612334 15.0048 0.833347 15.0048ZM1.66668 11.1798L10.8333 2.01317L12.9917 4.1715L3.82501 13.3382H1.66668V11.1798Z" fill="#464255"/>
</svg>
