<svg width="17" height="16" viewBox="0 0 17 16" fill="none" xmlns="http://www.w3.org/2000/svg">
<path d="M0.875062 15.725C1.04948 15.797 1.23639 15.8338 1.42506 15.8333C1.61114 15.8343 1.79551 15.7979 1.96727 15.7263C2.13903 15.6547 2.2947 15.5494 2.42506 15.4167L4.50839 13.3333H12.5001C13.6051 13.3333 14.6649 12.8943 15.4463 12.1129C16.2277 11.3315 16.6667 10.2717 16.6667 9.16667V4.16667C16.6667 3.0616 16.2277 2.00179 15.4463 1.22039C14.6649 0.438987 13.6051 0 12.5001 0H4.16673C3.06166 0 2.00185 0.438987 1.22045 1.22039C0.439049 2.00179 6.18927e-05 3.0616 6.18927e-05 4.16667V14.4083C-0.00257978 14.6902 0.0793966 14.9663 0.235388 15.201C0.39138 15.4358 0.614211 15.6183 0.875062 15.725ZM1.66673 4.16667C1.66673 3.50363 1.93012 2.86774 2.39896 2.3989C2.8678 1.93006 3.50369 1.66667 4.16673 1.66667H12.5001C13.1631 1.66667 13.799 1.93006 14.2678 2.3989C14.7367 2.86774 15.0001 3.50363 15.0001 4.16667V9.16667C15.0001 9.82971 14.7367 10.4656 14.2678 10.9344C13.799 11.4033 13.1631 11.6667 12.5001 11.6667H4.16673C4.05706 11.666 3.94834 11.6871 3.84681 11.7285C3.74528 11.77 3.65293 11.8311 3.57506 11.9083L1.66673 13.825V4.16667Z" fill="#464255"/>
</svg>
