<svg width="25" height="25" viewBox="0 0 25 25" fill="none" xmlns="http://www.w3.org/2000/svg">
<path d="M12.2954 6.17035C11.0839 6.17035 9.89974 6.52958 8.89249 7.2026C7.88524 7.87563 7.10018 8.83222 6.63659 9.95142C6.17301 11.0706 6.05171 12.3021 6.28804 13.4903C6.52438 14.6784 7.10773 15.7698 7.96433 16.6264C8.82092 17.483 9.91229 18.0663 11.1004 18.3027C12.2886 18.539 13.5201 18.4177 14.6393 17.9541C15.7585 17.4905 16.7151 16.7055 17.3881 15.6982C18.0611 14.691 18.4204 13.5068 18.4204 12.2954C18.4204 10.6709 17.775 9.11299 16.6264 7.96433C15.4777 6.81567 13.9198 6.17035 12.2954 6.17035ZM12.2954 15.7954C11.6031 15.7954 10.9264 15.5901 10.3509 15.2055C9.77529 14.8209 9.32668 14.2743 9.06178 13.6347C8.79687 12.9952 8.72756 12.2915 8.86261 11.6125C8.99765 10.9336 9.331 10.31 9.82048 9.82048C10.31 9.331 10.9336 8.99765 11.6125 8.86261C12.2915 8.72756 12.9952 8.79687 13.6347 9.06178C14.2743 9.32668 14.8209 9.77529 15.2055 10.3509C15.5901 10.9264 15.7954 11.6031 15.7954 12.2954C15.7925 13.2227 15.4228 14.1113 14.767 14.767C14.1113 15.4228 13.2227 15.7925 12.2954 15.7954ZM24.3266 14.4829L22.7844 12.4266V12.1641L24.3266 10.1079C24.4439 9.94782 24.5243 9.76383 24.5621 9.56907C24.5999 9.3743 24.5942 9.17358 24.5454 8.98129C24.2628 7.93203 23.8436 6.92444 23.2985 5.98442C23.2005 5.81063 23.0636 5.66191 22.8985 5.54995C22.7334 5.43798 22.5446 5.36581 22.3469 5.3391L19.8204 4.97817L19.6125 4.77035L19.2516 2.24379C19.2249 2.0461 19.1527 1.85729 19.0408 1.69218C18.9288 1.52708 18.7801 1.39018 18.6063 1.29223C17.6663 0.74712 16.6587 0.327906 15.6094 0.045354C15.4174 -0.00670544 15.216 -0.014057 15.0207 0.0238642C14.8254 0.0617854 14.6414 0.14397 14.4829 0.264104L12.4375 1.79535H12.1532L10.1079 0.264104C9.94782 0.146827 9.76383 0.0663973 9.56907 0.0285788C9.3743 -0.00923979 9.17358 -0.00351121 8.98129 0.045354C7.93203 0.327906 6.92444 0.74712 5.98442 1.29223C5.81063 1.39018 5.66191 1.52708 5.54995 1.69218C5.43798 1.85729 5.36581 2.0461 5.3391 2.24379L4.97817 4.77035C4.90352 4.83403 4.83403 4.90352 4.77035 4.97817L2.24379 5.3391C2.0461 5.36581 1.85729 5.43798 1.69218 5.54995C1.52708 5.66191 1.39018 5.81063 1.29223 5.98442C0.74712 6.92444 0.327906 7.93203 0.045354 8.98129C-0.00670543 9.1733 -0.014057 9.37469 0.0238642 9.56998C0.0617854 9.76528 0.14397 9.94928 0.264104 10.1079L1.80629 12.1641V12.4266L0.264104 14.4829C0.146827 14.6429 0.0663973 14.8269 0.0285788 15.0216C-0.00923979 15.2164 -0.00351121 15.4171 0.045354 15.6094C0.327906 16.6587 0.74712 17.6663 1.29223 18.6063C1.39018 18.7801 1.52708 18.9288 1.69218 19.0408C1.85729 19.1527 2.0461 19.2249 2.24379 19.2516L4.77035 19.6125L4.97817 19.8204L5.3391 22.3469C5.36581 22.5446 5.43798 22.7334 5.54995 22.8985C5.66191 23.0636 5.81063 23.2005 5.98442 23.2985C6.92444 23.8436 7.93203 24.2628 8.98129 24.5454C9.09153 24.5766 9.20579 24.5914 9.32035 24.5891C9.6046 24.5907 9.88142 24.4984 10.1079 24.3266L12.1532 22.7954H12.4375L14.4829 24.3266C14.6429 24.4439 14.8269 24.5243 15.0216 24.5621C15.2164 24.5999 15.4171 24.5942 15.6094 24.5454C16.6587 24.2628 17.6663 23.8436 18.6063 23.2985C18.7801 23.2005 18.9288 23.0636 19.0408 22.8985C19.1527 22.7334 19.2249 22.5446 19.2516 22.3469L19.6235 19.8094L19.8094 19.6235L22.3469 19.2516C22.5446 19.2249 22.7334 19.1527 22.8985 19.0408C23.0636 18.9288 23.2005 18.7801 23.2985 18.6063C23.8436 17.6663 24.2628 16.6587 24.5454 15.6094C24.5974 15.4174 24.6048 15.216 24.5668 15.0207C24.5289 14.8254 24.4467 14.6414 24.3266 14.4829ZM21.3188 16.7469L18.9891 17.086C18.6974 17.129 18.4282 17.2675 18.2235 17.4797C18.0375 17.6766 17.6875 18.0375 17.5125 18.1907C17.2817 18.399 17.1308 18.6814 17.086 18.9891L16.7469 21.3188C16.3513 21.519 15.9419 21.6908 15.5219 21.8329L13.6407 20.411C13.3926 20.2253 13.0856 20.1359 12.7766 20.1594H11.8141C11.5053 20.1379 11.199 20.2271 10.95 20.411L9.06879 21.8329C8.64876 21.6908 8.23939 21.519 7.84379 21.3188L7.50473 18.9891C7.45992 18.6814 7.30905 18.399 7.07817 18.1907C6.83602 17.9813 6.60938 17.7547 6.40004 17.5125C6.19173 17.2817 5.90932 17.1308 5.6016 17.086L3.27192 16.7469C3.07167 16.3513 2.89988 15.9419 2.75785 15.5219L4.17973 13.6407C4.35403 13.403 4.44618 13.1151 4.44223 12.8204C4.43129 12.5469 4.42035 12.0438 4.43129 11.8141C4.45285 11.5053 4.36366 11.199 4.17973 10.95L2.75785 9.06879C2.89988 8.64876 3.07167 8.23939 3.27192 7.84379L5.6016 7.50473C5.90932 7.45992 6.19173 7.30905 6.40004 7.07817C6.60938 6.83602 6.83602 6.60938 7.07817 6.40004C7.30905 6.19173 7.45992 5.90932 7.50473 5.6016L7.84379 3.27192C8.23939 3.07167 8.64876 2.89988 9.06879 2.75785L10.95 4.17973C11.1981 4.36543 11.5051 4.45482 11.8141 4.43129C12.1313 4.42035 12.4594 4.42035 12.7766 4.43129C13.0856 4.45482 13.3926 4.36543 13.6407 4.17973L15.5219 2.75785C15.9419 2.89988 16.3513 3.07167 16.7469 3.27192L17.086 5.6016C17.1308 5.90932 17.2817 6.19173 17.5125 6.40004C17.7547 6.60938 17.9813 6.83602 18.1907 7.07817C18.399 7.30905 18.6814 7.45992 18.9891 7.50473L21.3188 7.84379C21.519 8.23939 21.6908 8.64876 21.8329 9.06879L20.411 10.95C20.2352 11.1864 20.1464 11.4761 20.1594 11.7704C20.1594 12.0438 20.1704 12.5469 20.1594 12.7766C20.1359 13.0856 20.2253 13.3926 20.411 13.6407L21.8329 15.5219C21.6908 15.9419 21.519 16.3513 21.3188 16.7469Z" fill="white"/>
</svg>
