<svg width="15" height="14" viewBox="0 0 15 14" fill="none" xmlns="http://www.w3.org/2000/svg">
<path d="M7.00315 0.138144C7.06302 -0.0461184 7.3237 -0.0461177 7.38357 0.138144L8.94457 4.9424C8.97134 5.02481 9.04813 5.0806 9.13478 5.0806H14.1863C14.38 5.0806 14.4606 5.32852 14.3038 5.4424L10.2171 8.4116C10.147 8.46253 10.1177 8.5528 10.1444 8.6352L11.7054 13.4395C11.7653 13.6237 11.5544 13.7769 11.3977 13.6631L7.31092 10.6939C7.24082 10.6429 7.1459 10.6429 7.0758 10.6939L2.98906 13.6631C2.83231 13.7769 2.62142 13.6237 2.68129 13.4395L4.24229 8.6352C4.26906 8.5528 4.23973 8.46253 4.16963 8.4116L0.082886 5.4424C-0.0738567 5.32852 0.00669909 5.0806 0.200444 5.0806H5.25194C5.33858 5.0806 5.41538 5.02481 5.44215 4.9424L7.00315 0.138144Z" fill="#FFCF54"/>
</svg>
