<svg width="17" height="15" viewBox="0 0 17 15" fill="none" xmlns="http://www.w3.org/2000/svg">
<path d="M2.5 15H14.1667C14.8297 15 15.4656 14.7366 15.9344 14.2678C16.4033 13.7989 16.6667 13.163 16.6667 12.5V2.5C16.6667 1.83696 16.4033 1.20107 15.9344 0.732233C15.4656 0.263392 14.8297 0 14.1667 0H2.5C1.83696 0 1.20107 0.263392 0.732233 0.732233C0.263392 1.20107 0 1.83696 0 2.5V12.5C0 13.163 0.263392 13.7989 0.732233 14.2678C1.20107 14.7366 1.83696 15 2.5 15ZM15 8.33333H10.8333V6.66667H15V8.33333ZM1.66667 2.5C1.66667 2.27899 1.75446 2.06702 1.91074 1.91074C2.06703 1.75446 2.27899 1.66667 2.5 1.66667H14.1667C14.3877 1.66667 14.5996 1.75446 14.7559 1.91074C14.9122 2.06702 15 2.27899 15 2.5V5H10C9.77899 5 9.56703 5.0878 9.41075 5.24408C9.25447 5.40036 9.16667 5.61232 9.16667 5.83333V9.16667C9.16667 9.38768 9.25447 9.59964 9.41075 9.75592C9.56703 9.9122 9.77899 10 10 10H15V12.5C15 12.721 14.9122 12.933 14.7559 13.0893C14.5996 13.2455 14.3877 13.3333 14.1667 13.3333H2.5C2.27899 13.3333 2.06703 13.2455 1.91074 13.0893C1.75446 12.933 1.66667 12.721 1.66667 12.5V2.5Z" fill="#464255"/>
</svg>
